<?xml version="1.0" encoding="UTF-8" standalone="no"?>
<svg
   xmlns:dc="http://purl.org/dc/elements/1.1/"
   xmlns:cc="http://creativecommons.org/ns#"
   xmlns:rdf="http://www.w3.org/1999/02/22-rdf-syntax-ns#"
   xmlns:svg="http://www.w3.org/2000/svg"
   xmlns="http://www.w3.org/2000/svg"
   viewBox="0 0 257.39999 75.800003"
   height="75.800003"
   width="257.39999"
   xml:space="preserve"
   version="1.1"
   id="svg2"><metadata
     id="metadata8"><rdf:RDF><cc:Work
         rdf:about=""><dc:format>image/svg+xml</dc:format><dc:type
           rdf:resource="http://purl.org/dc/dcmitype/StillImage" /></cc:Work></rdf:RDF></metadata><defs
     id="defs6" /><g
     transform="matrix(1.25,0,0,-1.25,0,75.8)"
     id="g10"><g
       transform="scale(0.1,0.1)"
       id="g12"><path
         id="path14"
         style="fill:#4fb037;fill-opacity:1;fill-rule:nonzero;stroke:none"
         d="M 240.891,0 1867.28,65.8516 1920.75,125.586 130.43,91.3398 240.891,0" /><path
         id="path16"
         style="fill:#4fb037;fill-opacity:1;fill-rule:nonzero;stroke:none"
         d="m 838.328,396.316 c -28.406,0 -43.82,-15.285 -46.262,-45.867 l 88.879,0 c 1.891,30.582 -12.308,45.867 -42.617,45.867" /><path
         id="path18"
         style="fill:#4fb037;fill-opacity:1;fill-rule:nonzero;stroke:none"
         d="m 1401.71,397.934 c -35.85,0 -53.77,-21.719 -53.77,-65.141 0,-44.512 17.92,-66.77 53.77,-66.77 35.86,0 53.78,22.258 53.78,66.77 0,43.422 -17.92,65.141 -53.78,65.141" /><path
         id="path20"
         style="fill:#4fb037;fill-opacity:1;fill-rule:nonzero;stroke:none"
         d="m 403.008,396.316 c -28.406,0 -43.824,-15.285 -46.266,-45.867 l 88.883,0 c 1.914,30.582 -12.297,45.867 -42.617,45.867" /><path
         id="path22"
         style="fill:#4fb037;fill-opacity:1;fill-rule:nonzero;stroke:none"
         d="m 1888,395.102 c -20.03,0 -37.95,-9.004 -53.79,-26.993 l 0,-142.668 -53.76,0 0,213.075 41.6,0 6.69,-27.188 c 18.67,18.129 38.43,27.188 59.26,27.188 l 0,-43.414 z m -148.73,-169.661 -42.01,0 -6.49,27.196 c -25.85,-18.145 -51.83,-27.196 -77.94,-27.196 -48.97,0 -73.45,26.454 -73.45,79.356 l 0,133.719 53.77,0 0,-134.336 c 0,-23.543 11.64,-35.301 34.91,-35.301 18.81,0 37.95,8.992 57.44,26.984 l 0,142.653 53.77,0 0,-213.075 z m -337.56,-1.828 c -71.44,0 -107.29,36.121 -107.56,108.371 0,72.371 35.85,108.567 107.56,108.567 71.71,0 107.56,-36.196 107.56,-108.567 0,-72.25 -35.85,-108.371 -107.56,-108.371 z m -127.05,138.297 -63.92,0 0,-136.668 -53.79,-0.808 0,190.453 c 0,51.551 31.93,77.308 95.79,77.308 17.46,0 33.29,-2.699 47.49,-8.101 l 0,-42.614 c -13.39,5.399 -29.29,8.106 -47.69,8.106 -27.85,0 -41.8,-15.016 -41.8,-45.043 l 63.92,0 0,-42.633 z m -252.21,-136.469 -53.778,0 0,256.207 53.778,0 0,-256.207 z m -90.97,85.633 -139.414,0 c 0,-28.679 23.399,-43.027 70.215,-43.027 21.504,0 43.028,2.043 64.535,6.101 l 0,-42.617 c -18.796,-4.058 -43.031,-6.09 -72.656,-6.09 -77.246,0 -115.883,36.317 -115.883,108.985 0,69.398 35.383,104.09 106.149,104.09 70.625,0 99.633,-42.469 87.054,-127.442 z m -287.773,-85.633 -51.145,0 -81.378,213.075 56.812,0 51.762,-148.942 53.765,148.942 56.825,0 -86.641,-213.075 z m -147.551,85.633 -139.414,0 c 0,-28.679 23.418,-43.027 70.215,-43.027 21.523,0 43.027,2.043 64.543,6.101 l 0,-42.617 c -18.805,-4.058 -43.02,-6.09 -72.656,-6.09 -77.25,0 -115.864,36.317 -115.864,108.985 0,69.398 35.36,104.09 106.125,104.09 70.625,0 99.645,-42.469 87.051,-127.442 z m -225.426,-85.633 -53.765,0 0,256.207 53.765,0 0,-256.207 z M 0,606.422 117.688,123.191 1941.63,152.93 2059.17,548.039 0,606.422" /></g></g></svg>